<mxfile host="app.diagrams.net" modified="2024-04-28T20:48:51.579Z" agent="Mozilla/5.0 (Macintosh; Intel Mac OS X 10_15_7) AppleWebKit/537.36 (KHTML, like Gecko) Chrome/124.0.0.0 Safari/537.36" etag="YkSnZ1rFjjAjvbSwq7o-" version="24.3.1" type="device">
  <diagram name="Page-1" id="IgvmL1c59EEMmlrB2GUw">
    <mxGraphModel dx="954" dy="615" grid="1" gridSize="10" guides="1" tooltips="1" connect="1" arrows="1" fold="1" page="1" pageScale="1" pageWidth="850" pageHeight="1100" math="0" shadow="0">
      <root>
        <mxCell id="0" />
        <mxCell id="1" parent="0" />
        <mxCell id="qLw2iEU_IhM08ohpMVO2-6" style="edgeStyle=orthogonalEdgeStyle;rounded=0;orthogonalLoop=1;jettySize=auto;html=1;exitX=1;exitY=0.5;exitDx=0;exitDy=0;entryX=0;entryY=0.25;entryDx=0;entryDy=0;" edge="1" parent="1" source="qLw2iEU_IhM08ohpMVO2-1" target="qLw2iEU_IhM08ohpMVO2-4">
          <mxGeometry relative="1" as="geometry" />
        </mxCell>
        <mxCell id="qLw2iEU_IhM08ohpMVO2-1" value="Module A" style="rounded=1;whiteSpace=wrap;html=1;fillColor=#ffe6cc;strokeColor=#d79b00;" vertex="1" parent="1">
          <mxGeometry x="150" y="200" width="120" height="60" as="geometry" />
        </mxCell>
        <mxCell id="qLw2iEU_IhM08ohpMVO2-7" style="edgeStyle=orthogonalEdgeStyle;rounded=0;orthogonalLoop=1;jettySize=auto;html=1;exitX=1;exitY=0.5;exitDx=0;exitDy=0;entryX=0;entryY=0.5;entryDx=0;entryDy=0;" edge="1" parent="1" source="qLw2iEU_IhM08ohpMVO2-2" target="qLw2iEU_IhM08ohpMVO2-4">
          <mxGeometry relative="1" as="geometry" />
        </mxCell>
        <mxCell id="qLw2iEU_IhM08ohpMVO2-2" value="Module B" style="rounded=1;whiteSpace=wrap;html=1;fillColor=#ffe6cc;strokeColor=#d79b00;" vertex="1" parent="1">
          <mxGeometry x="150" y="280" width="120" height="60" as="geometry" />
        </mxCell>
        <mxCell id="qLw2iEU_IhM08ohpMVO2-8" style="edgeStyle=orthogonalEdgeStyle;rounded=0;orthogonalLoop=1;jettySize=auto;html=1;exitX=1;exitY=0.5;exitDx=0;exitDy=0;entryX=0;entryY=0.75;entryDx=0;entryDy=0;" edge="1" parent="1" source="qLw2iEU_IhM08ohpMVO2-3" target="qLw2iEU_IhM08ohpMVO2-4">
          <mxGeometry relative="1" as="geometry" />
        </mxCell>
        <mxCell id="qLw2iEU_IhM08ohpMVO2-3" value="Module C" style="rounded=1;whiteSpace=wrap;html=1;fillColor=#ffe6cc;strokeColor=#d79b00;" vertex="1" parent="1">
          <mxGeometry x="150" y="360" width="120" height="60" as="geometry" />
        </mxCell>
        <mxCell id="qLw2iEU_IhM08ohpMVO2-4" value="Library X" style="rounded=0;whiteSpace=wrap;html=1;fillColor=#dae8fc;strokeColor=#6c8ebf;" vertex="1" parent="1">
          <mxGeometry x="360" y="280" width="120" height="60" as="geometry" />
        </mxCell>
      </root>
    </mxGraphModel>
  </diagram>
</mxfile>
